<?xml version="1.0" encoding="UTF-8" standalone="no"?>
<!-- Created with Inkscape (http://www.inkscape.org/) -->

<svg
   width="79.666351mm"
   height="123.68551mm"
   viewBox="0 0 79.666351 123.68551"
   version="1.1"
   id="svg1"
   xml:space="preserve"
   xmlns:inkscape="http://www.inkscape.org/namespaces/inkscape"
   xmlns:sodipodi="http://sodipodi.sourceforge.net/DTD/sodipodi-0.dtd"
   xmlns="http://www.w3.org/2000/svg"
   xmlns:svg="http://www.w3.org/2000/svg"><sodipodi:namedview
     id="namedview1"
     pagecolor="#505050"
     bordercolor="#eeeeee"
     borderopacity="1"
     inkscape:showpageshadow="0"
     inkscape:pageopacity="0"
     inkscape:pagecheckerboard="0"
     inkscape:deskcolor="#505050"
     inkscape:document-units="mm" /><defs
     id="defs1" /><g
     inkscape:label="Capa 1"
     inkscape:groupmode="layer"
     id="layer1"
     transform="translate(-74.753763,-44.875899)"><g
       id="g4"
       transform="matrix(0.26458333,0,0,0.26458333,11.256967,70.76744)"><g
         id="g1"
         transform="translate(-42.819513,-60.306127)"><path
           style="fill:#e12e23"
           d="m 431.59282,426.90593 c -0.56514,-1.82435 -3.72077,-11.867 -7.01251,-22.317 -3.29173,-10.45 -11.91132,-37.9 -19.15463,-61 -7.24331,-23.1 -16.0891,-51.225 -19.6573,-62.5 -3.56821,-11.275 -6.94629,-21.97857 -7.50684,-23.78572 -0.88847,-2.86426 -2.32248,-3.93621 -11.17986,-8.35714 -42.92309,-21.42393 -71.28106,-57.98752 -81.90015,-105.59863 -3.1655,-14.19264 -3.1655,-45.324384 0,-59.517024 13.49454,-60.503313 59.32585,-106.155039 118.09173,-117.629 20.9184,-4.084291 28.90379,-4.587103 42.86571,-2.699104 40.59236,5.489094 66.60024,17.832043 92.81843,44.0502346 26.9717,26.9716994 39.7226,54.5111564 44.48746,96.0842334 1.81743,15.85691 -1.84599,41.71072 -8.56591,60.45215 -6.34372,17.69225 -17.06775,35.6146 -29.66752,49.58137 -14.56083,16.14059 -27.44599,25.78463 -48.49876,36.29942 -7.88972,3.94051 -8.26434,4.28442 -9.65038,8.85943 -3.05564,10.08593 -16.93903,54.33115 -20.63429,65.75978 -2.134,6.6 -8.44292,26.625 -14.01981,44.5 -11.37068,36.44518 -19.02618,60.34232 -19.48286,60.817 -0.16774,0.17435 -0.76737,-1.17565 -1.33251,-3 z m 18.8282,-240.47869 c 14.64342,-3.41587 30.75383,-13.47826 40.56794,-25.33831 5.74931,-6.94785 12.86619,-21.3971 15.02259,-30.5 2.15004,-9.07611 2.15715,-24.90705 0.0152,-33.892424 C 502.44292,81.662391 492.81672,66.14712 480.7347,55.931387 461.24815,39.454889 431.42029,34.389314 406.84977,43.383733 384.44129,51.586704 366.30469,71.64545 360.35851,94.80221 c -2.73146,10.6374 -2.73146,26.93603 0,37.57344 5.0894,19.82013 19.20119,37.77401 37.03783,47.12178 17.06561,8.9437 34.57928,11.23256 53.02468,6.92981 z"
           id="path2" /><path
           style="fill:#751211"
           d="m 423.54876,188.04693 c -30.36439,-4.11496 -55.6783,-26.41679 -63.19025,-55.67128 -2.73146,-10.63741 -2.73146,-26.93604 0,-37.57344 5.94618,-23.15676 24.08278,-43.215506 46.49126,-51.418477 8.44972,-3.093149 15.41256,-4.224653 26.20938,-4.259183 23.48996,-0.07512 43.64763,9.578379 58.50196,28.016574 6.14385,7.626156 12.17616,19.951026 14.46565,29.555382 2.14194,8.985374 2.13483,24.816314 -0.0152,33.892424 -0.91203,3.85 -3.64119,11.05 -6.06481,16 -7.70926,15.74545 -18.41226,26.43235 -34.02572,33.97454 -13.96865,6.74765 -28.65811,9.34199 -42.37226,7.48346 z"
           id="path1" /></g></g></g></svg>
